<svg width="581" height="436" viewBox="0 0 581 436" fill="none" xmlns="http://www.w3.org/2000/svg">
<g clip-path="url(#clip0)">
<path fill-rule="evenodd" clip-rule="evenodd" d="M287.244 94.1522C281.208 96.5496 277.153 102.143 275.754 108.408C275.106 111.304 275.72 115.726 273.823 118.061C271.553 120.855 268.023 118.436 265.406 120.188C259.437 124.184 265.829 131.397 270.277 132.585C273.825 133.532 277.433 134.112 281 134.804C284.349 135.452 285.984 138.414 287.994 141.098C285.218 140.635 282.494 139.935 279.702 139.493C278.5 139.303 276.757 138.705 275.505 138.783C273.995 138.876 273.033 139.928 271.598 140.177C269.132 140.606 267.436 139.022 266.464 142.123C265.749 144.408 266.887 147.139 268.931 148.267C267.124 150.036 262.956 150.511 260.593 151.245C257.17 152.308 253.687 152.999 250.512 154.793C250.512 149.209 250.581 144.788 247.855 139.68C246.532 137.2 244.008 130.235 241.303 129.198C240.49 128.886 239.342 129.058 238.494 128.805C237.612 128.542 237.125 127.775 236.138 127.749C234.342 127.701 232.403 129.8 231.337 131.171C228.64 134.64 228.746 140.189 228.912 144.368C229.084 148.687 229.52 154.11 231.284 158.105C231.694 159.033 232.115 160.077 233.009 160.635C233.658 161.04 234.869 160.72 235.369 161.18C237.184 162.854 234.664 163.812 233.264 164.837C229.686 167.455 226.596 169.991 223.978 173.505C221.768 176.471 218.321 180.071 217.756 183.873C215.324 180.578 213.614 176.861 211.748 173.236C210.689 171.177 210.666 171.594 211.793 170.034C212.671 168.819 214.215 167.554 215.469 166.705C218.034 164.968 220.685 163.098 221.438 159.792C222.007 157.292 220.647 152.673 219.866 150.144C218.87 146.912 216.264 144.432 212.923 146.32C210.448 147.719 209.257 152.72 206.858 153.42C204.15 154.21 204.522 147.642 204.273 145.819C203.808 142.419 202.012 136.701 203.134 133.362C204.009 130.762 208.224 129.376 210.414 127.795C213.667 125.445 216.874 122.454 219.161 119.133C221.506 115.727 221.299 112.259 220.879 108.29C220.634 105.975 220.253 99.6737 216.392 101.01C214.169 101.779 204.237 115.309 202.478 110.507C201.983 109.153 203.054 105.741 203.242 104.18C203.379 103.041 203.357 97.6169 204.125 96.8607C204.42 96.5701 207.903 96.1006 208.664 95.6316C210.49 94.5059 211.861 93.0304 212.959 91.1956C216.597 85.1171 212.461 75.6159 205.624 74.0905C201.167 73.0959 198.758 74.6599 196.263 78.2518C193.849 81.7285 189.11 80.2257 185.08 81.0637C184.322 78.9995 186.989 74.9387 187.695 72.9494C188.734 70.0195 189.88 66.9771 190.294 63.886C191.101 57.8535 189.711 51.3464 187.797 45.6614C190.092 46.0134 193.354 45.8737 194.933 47.591C196.516 49.3112 197.219 52.8429 198.556 54.9105C201.135 58.8992 204.1 63.2518 207.65 66.4242C212.286 70.5662 214.119 68.632 217.672 64.7858C221.273 60.8873 219.386 55.3851 218.106 50.5715C221.02 50.1344 224.387 50.9547 227.252 51.4162C229.848 51.8341 234.718 51.9283 236.921 53.4975C238.569 54.6709 237.984 55.95 238.144 58.2571C238.36 61.3772 238.851 64.532 239.799 67.5204C241.729 73.6011 246.089 75.688 251.33 71.776C253.151 74.2205 255.129 77.4536 257.94 78.84C260.699 80.2019 265.83 81.3225 268.918 81.5468C272.806 81.8284 275.912 80.098 279.127 78.1326C280.7 77.1709 281.143 76.3818 282.516 77.1368C283.531 77.6955 284.872 80.3347 285.903 81.2465C287.058 82.2672 288.328 83.2068 289.565 84.1236C290.142 84.5988 290.742 85.0439 291.364 85.4589C292.731 85.7859 293.19 86.5977 292.742 87.8943C293.607 90.3923 293.773 93.0383 294.504 95.5624C295.367 98.5445 297.416 100.169 300.172 101.27C301.127 101.541 302.066 101.864 302.987 102.237C304.629 102.269 305.002 102.934 304.105 104.23C304.104 105.971 302.337 108.62 301.39 109.991C300.461 107.409 296.871 104.533 294.086 105.628C290.847 106.901 290.722 110.625 290.952 113.537C288.928 112.585 287.19 111.209 285.46 109.816C284.62 109.139 283.228 108.353 282.61 107.449C281.539 105.882 281.633 106.695 282.386 104.57C283.219 102.22 289.384 96.4384 287.244 94.1522Z" fill="#0779E4"/>
<path fill-rule="evenodd" clip-rule="evenodd" d="M266.265 0.339972C269.059 1.07061 269.281 2.21114 271.399 3.46861C273.555 4.74936 277.676 3.70478 280.426 4.54839C281.869 4.99121 282.758 5.79224 283.991 6.5666C284.738 7.03609 284.645 7.28588 285.429 7.61175C285.837 7.78092 286.757 7.57712 287.239 7.68214C290.582 8.41392 290.882 12.3521 293.011 13.1242C294.65 13.7192 295.421 12.5667 297.22 13.8338C298.236 14.5497 299.241 15.8867 299.779 16.9982C300.042 17.5438 300.298 19.3792 300.527 19.6523C301.252 20.5152 300.958 20.0463 301.662 20.5305C303.11 21.5263 304.813 21.5195 306.402 23.1965C308.558 25.4719 311.127 27.2749 311.639 30.5602C311.726 31.1175 311.744 31.6305 311.722 32.1236L311.704 31.8325C311.742 32.4774 311.781 33.1212 311.818 33.7649C311.786 33.2176 311.753 32.6708 311.721 32.1246C311.674 33.2282 311.431 34.232 311.333 35.4113C311.236 36.5723 311.082 36.5762 311.326 37.4085C311.49 37.9688 312.453 38.7239 312.686 39.5504C314.512 46.032 304.006 53.3327 298.603 49.6869C296.396 54.3551 294.805 59.2675 292.685 63.9608C291.523 66.5325 285.41 72.5485 285.852 74.3771C286.215 75.8838 289.694 76.8971 290.908 77.6232C293.107 78.9403 295.237 80.5293 297.347 81.9844C299.181 83.2491 300.939 84.5954 302.725 85.897L302.664 85.8812C303.686 86.1175 304.445 86.7023 305.027 87.5229C306.25 88.3533 307.505 89.1391 308.824 89.8432C310.853 90.9269 311.393 91.1375 312.262 93.2999C313.151 95.5123 312.041 94.7396 313.98 96.1532C317.746 98.8998 323.482 100.094 327.747 101.962C337.209 106.103 346.477 108.276 356.88 106.475C366.22 104.859 374.948 100.375 383.689 96.8737C392.343 93.4078 400.964 89.6155 409.168 85.2135C416.927 81.0494 424.607 76.6445 431.767 71.4296C435.779 68.507 440.019 65.9035 443.874 62.7799C447.663 59.7115 451.194 56.3069 455.041 53.3344C462.578 47.5097 470.528 41.9331 478.485 36.6551C480.753 35.1513 482.978 33.5844 485.195 32.0062C486.53 31.0564 489.204 28.2905 490.969 28.6328C496.477 29.699 490.96 36.8198 490.03 38.9033C492.751 37.4488 494.97 35.3 497.801 33.9597C499.249 33.2739 503.252 30.848 504.781 31.8699C508.373 34.2685 499.893 42.1761 498.528 44.0115C500.801 42.7143 508.453 37.5788 510.31 41.7821C512.255 46.1824 505.183 51.3985 502.607 53.8505C495.008 61.0831 486.231 66.7789 478.5 73.7986C477.434 74.7665 473.939 76.9 474.202 78.6446C474.448 80.2744 477.66 82.157 478.811 83.239C481.072 85.3656 488.25 92.2866 483.679 95.7774C482.067 97.0088 477.468 95.9897 475.54 95.7859C472.714 95.4879 469.93 95.2574 467.128 94.789C463.007 94.0998 458.967 90.8667 454.842 90.7447C450.205 90.6079 445.211 94.713 441.221 96.6937C436.535 99.0196 432.032 101.595 427.368 103.971C418.463 108.507 409.963 113.588 400.774 117.676C390.7 122.157 379.895 125.057 369.944 129.819C359.818 134.665 350.057 136.204 338.965 135.862C328.14 135.528 316.567 128.353 307.998 122.207C307.503 121.849 307.008 121.491 306.513 121.132C305.595 119.73 304.794 119.693 304.109 121.022C302.718 121.25 302.143 121.466 300.485 121.35C297.777 121.16 296.424 120.551 293.94 119.631C288.311 117.548 284.057 115.924 280.077 111.061C277.469 117.849 284.045 125.012 287.566 130.324C289.506 133.252 291.713 136.044 293.385 139.138C294.743 141.652 295.233 145.557 297.832 146.662C299.384 147.321 300.344 146.23 301.39 147.795C302.073 148.818 301.325 149.991 301.191 150.855C300.85 153.051 299.79 149.957 300.55 153.194C300.79 154.217 302.227 156.166 302.706 157.105C305.966 163.506 308.624 170.202 311.413 176.823C314.187 183.409 316.937 189.932 319.655 196.531C320.828 199.379 322.473 202.003 323.592 204.881C324.955 208.39 325.793 212.055 327.092 215.591C329.108 221.081 329.495 228.342 327.831 234.017C326.202 239.575 319.126 245.288 313.487 244.932C316.098 250.162 319.059 254.864 321.78 260.001C324.329 264.813 326.111 269.953 328.756 274.592C331.767 279.872 334.397 285.508 337.418 290.681C339.969 295.05 341.569 300.026 343.966 304.465C349.429 314.586 354.696 325.11 360.553 335.152C363.96 340.994 367.031 347.005 370.488 352.827C372.337 355.941 374.226 359.027 376.109 362.12C377.196 363.905 378.425 367.828 380.465 368.692C379.878 369.305 377.997 370.712 377.929 371.606C377.749 373.986 380.155 373.328 381.502 373C384.923 372.166 388.219 371.293 391.527 370.104C397.86 367.83 403.888 364.61 410.293 362.569C416.943 360.449 423.209 356.751 430.111 355.175C433.251 354.458 443.58 350.051 444.491 353.747C444.663 354.446 444.213 356.126 444.22 356.974C444.233 358.473 444.625 359.811 444.411 361.369C444.002 364.353 442.364 367.334 440.769 369.824C436.948 375.786 432.665 381.632 427.629 386.617C418.994 395.165 411.189 406.628 400.534 412.731C398.42 413.942 396.417 416.088 394.026 416.725C391.372 417.432 389.116 416.543 386.743 416.444C385.438 416.389 385.367 417.116 383.794 416.523C382.501 416.036 380.84 414.462 379.785 413.629C377.123 411.527 374.874 408.865 372.677 406.288C370.734 404.009 368.676 399.658 366.046 398.202C364.585 397.394 364.664 398.691 363.353 396.893C362.629 395.899 362.563 394.884 361.668 393.888C360.714 392.825 360.111 392.675 359.48 391.392C359.038 390.495 359.021 389.622 358.45 388.701C356.553 385.639 353.683 383.012 351.648 379.982C348.608 375.454 344.702 371.54 341.502 367.142C337.673 361.88 333.415 356.639 329.26 351.64C321.258 342.007 313.9 331.382 306.322 321.204C298.124 310.195 290.468 298.443 283.633 286.525C279.969 280.136 275.538 273.954 271.69 267.639C267.929 261.466 264.466 254.999 260.067 249.271C259.219 249.942 260.652 252.379 259.61 253.377C258.521 254.423 253.418 254.464 252.025 254.705C247.27 255.528 242.205 256.442 237.372 256.626C227.419 257.003 217.604 259.027 207.572 259.463C205.33 259.561 203.552 259.206 201.389 258.755C198.146 258.078 197.537 257.69 196.873 260.881C195.862 265.735 194.667 270.926 194.22 275.844C193.759 280.926 193.676 286.012 193.605 291.116C193.571 293.548 193.505 295.982 193.517 298.414C193.534 301.949 194.495 305.399 194.312 308.929C194.078 313.428 193.289 317.34 188.658 318.607C186.068 319.316 186.016 318.955 184.186 317.53C182.261 316.033 179.72 314.681 178.099 312.907C172.074 306.312 167.301 297.074 165.483 288.258C163.423 278.267 166.196 267.495 167.207 257.561C167.632 253.386 167.795 246.675 170.732 243.359C173.87 239.815 180.275 239.933 184.492 239.886C185.455 239.875 186.199 239.777 186.842 239.607C186.696 239.594 186.55 239.586 186.406 239.59L187.227 239.492C188.379 239.113 189.257 238.482 190.676 237.699C192.669 236.599 195.555 236.042 197.709 235.212C203.565 232.957 209.73 231.818 215.661 229.816C220.457 228.197 225.222 227.246 230.093 226.066C233.657 225.202 237.375 225.038 240.947 224.428C240.539 224.381 240.131 224.333 239.732 224.387C240.579 223.835 241.499 224.136 242.394 224.152C243.262 223.968 244.118 223.747 244.959 223.473C239.359 213.287 234.242 202.902 228.035 193.055C226.679 195.535 224.378 195.579 221.685 194.732C220.178 194.258 219.551 192.768 218.141 192.237C217.261 191.906 216.736 192.91 215.815 192.195C215.279 191.779 214.949 190.31 214.636 189.053C209.463 183.827 207.014 177.901 204.621 171.001C206.379 174.27 207.985 177.636 209.804 180.87C210.217 181.605 210.744 182.348 211.307 183.101L211.144 182.86C210.395 181.749 209.667 180.621 209.027 179.417C203.379 168.789 200.366 158.363 198.524 146.504C196.875 135.885 196.539 124.674 196.901 113.94L196.836 115.313C196.859 114.846 196.881 114.378 196.903 113.91L196.901 113.94C196.927 113.192 196.962 112.45 197.007 111.712L197.007 111.712C197.289 107.133 197.958 102.738 199.022 98.2089C199.437 96.4388 200.306 93.833 200.344 92.0743C200.366 91.0064 200.059 85.7835 199.712 85.4922C198.368 84.3636 193.142 85.2425 191.666 85.3952C188.98 85.6739 186.31 86.0969 183.624 86.379C183.084 86.4312 182.544 86.4829 182.004 86.5346C180.967 86.2689 180.21 86.5629 179.734 87.4168C178.321 87.6654 180.107 88.8372 178.138 87.6904C175.852 86.3591 175.91 81.4053 175.902 79.1583C175.898 78.3085 176.527 74.7137 175.942 74.087C175.491 73.6039 172.397 73.7975 171.624 73.7339C168.685 73.4943 165.728 73.1383 162.781 73.0203C156.964 72.7864 151.06 72.9317 145.243 72.9572C134.905 73.0015 125.114 77.7112 116.479 83.0284C112.492 85.4837 108.091 87.1937 104.154 89.7001C100.281 92.1668 96.8785 95.1961 93.0725 97.7871C87.751 101.409 82.1736 104.445 77.2385 108.591C74.8754 110.575 71.7378 112.56 70.0067 115.187C68.2676 117.826 69.4387 120.811 69.3661 123.837C69.2867 127.115 69.4938 130.593 68.9321 133.806C68.7374 134.92 68.565 137.044 67.5391 137.773C65.9754 138.884 66.3692 138.072 65.0285 137.33C59.2281 134.121 58.1977 128.114 56.5251 122.385C46.9386 135.263 40.5663 150.136 31.5012 163.447C30.1129 165.486 27.6935 169.805 24.7789 167.713C23.0251 166.454 22.7298 164.003 22.9322 161.637L22.9344 162.294C22.9315 161.665 22.9298 161.039 22.9281 160.414C22.93 160.82 22.9316 161.227 22.9328 161.633C23.0688 160.045 23.4288 158.497 23.7224 157.374C24.8237 153.165 25.7871 148.861 27.769 144.962C28.7625 143.008 29.95 141.157 30.9577 139.211C31.4734 138.217 33.0729 136.24 33.0025 135.123C32.5214 135.734 32.0414 136.344 31.5602 136.956C29.2975 138.048 27.5721 141.584 25.7032 143.343C24.0027 144.944 22.0713 146.537 20.2353 148.064C16.8667 150.866 13.9407 153.908 11.0857 157.32C9.35288 159.39 7.15711 161.359 5.61326 157.565C4.4331 154.665 6.28391 152.062 7.63711 149.585C9.40621 146.346 11.185 143.414 13.5345 140.571C15.5249 138.165 18.3198 135.599 19.1 132.565C15.1334 135.318 11.5759 138.53 7.28704 140.829C3.87423 142.658 -1.63789 142.558 0.465396 137.073C1.99279 133.092 6.6998 128.254 9.80906 125.354C13.0403 122.339 16.7504 119.537 20.2205 116.774C28.2881 110.351 37.284 105.075 45.793 99.2421C53.5628 93.9165 61.5078 88.8894 69.2265 83.6761C86.5589 71.9689 103.528 58.8792 123.611 52.1604C132.937 49.0403 142.747 46.6088 152.418 44.9329C157.408 44.0683 162.743 42.8329 167.792 42.6098C169.653 42.5275 171.45 42.8789 173.29 42.7677C175.204 42.6524 177.569 43.1571 179.453 42.7205C181.434 42.2618 183.182 40.1431 185.152 40.2726C185.802 40.3157 186.403 40.9987 187.059 41.0634C187.06 41.0636 187.06 41.0634 187.06 41.0632C187.877 40.9757 188.678 40.3161 189.449 41.0126C189.448 41.0128 189.448 41.0129 189.449 41.0129C192.181 41.0921 194.91 41.1295 197.63 41.266L197.51 41.3174C198.489 40.8769 199.468 40.9496 200.445 41.3237C199.833 41.3223 199.221 41.3211 198.609 41.3198C200.723 41.4459 202.832 41.6424 204.932 41.9757C214.039 43.4211 224.666 44.1807 233.357 47.8152C233.317 47.7719 233.279 47.7265 233.241 47.6798C234.015 47.5152 234.602 47.8183 235.071 48.4167C234.988 48.441 234.908 48.4586 234.831 48.4701C235.818 48.933 236.776 49.4388 237.699 49.9923C239.103 46.9755 236.481 47.885 234.043 46.7586C231.35 45.5148 229.228 43.9604 227.215 41.8417C225.495 40.0307 224.022 37.7707 224.622 35.0724C224.933 33.6769 226.487 33.1223 226.764 32.0998C226.858 31.7518 225.905 30.592 225.866 30.0924C225.771 28.8968 225.768 27.9806 226.043 26.8037C227.442 20.8354 226.838 13.1753 233.606 10.6149C235.071 10.0614 235.039 10.6774 236.127 9.52436C237.18 8.40938 237.572 6.55808 238.777 5.35511C241.079 3.05475 243.957 1.26193 247.145 0.554566C250.488 -0.187429 253.319 0.963316 256.533 0.850342C260.019 0.727717 262.621 -0.613778 266.265 0.339972ZM434.084 363.852C431.698 365.798 429.232 367.713 426.759 369.547C421.101 373.743 415.83 378.334 410.47 382.904C405.62 387.037 400.428 390.74 395.379 394.619C390.58 398.305 386.308 402.652 381.818 406.715C384.742 408.425 387.923 410.945 391.457 410.133C394.325 409.473 397.712 406.976 400.185 405.355C405.945 401.581 410.761 396.378 415.573 391.511C420.29 386.741 424.796 382.082 429.25 377.133C434.256 371.568 437.797 366.265 441.149 359.597C438.597 357.903 435.796 362.457 434.084 363.852ZM391.283 377.287C387.919 378.378 384.431 378.856 381.078 379.888C378.16 380.786 375.66 383.619 373.821 385.971C372.614 387.516 371.823 389.334 370.742 390.998C370.131 391.939 367.797 394.155 367.826 395.075C367.863 396.263 371.295 399.243 372.103 400.156C373.6 401.847 375.138 403.499 376.704 405.125C379.005 400.284 384.509 396.221 388.617 392.901C392.879 389.455 397.35 386.045 401.763 382.634C411.509 375.099 420.683 367.663 431.208 361.144C430.575 359.622 395.196 376.017 391.283 377.287ZM374.995 374.447C371.783 378.437 366.905 382.942 365.861 388.172C367.885 385.836 369.675 383.268 371.634 380.873C372.486 379.832 373.373 378.904 374.33 377.958C376.083 376.224 376.64 376.38 374.995 374.447ZM292.245 153.458C285.823 153.939 279.333 155.071 273.006 156.462L272.714 156.461C273.178 156.461 273.636 156.463 274.094 156.464C273.729 156.464 273.365 156.463 273.003 156.462C271.475 156.798 269.957 157.149 268.451 157.51C253.617 161.064 238.874 168.142 228.164 179.159L227.804 179.532C227.305 180.325 226.142 181.434 226.374 182.501C225.648 182.045 225.419 181.651 225.491 181.296C225.39 181.444 225.3 181.603 225.223 181.777C228.258 183.686 230.198 188.069 232.202 191.028C234.463 194.364 236.994 197.5 239.158 200.907C243.862 208.313 248.374 215.961 252.601 223.651C259.918 236.961 268.927 249.593 276.974 262.474C285.007 275.333 292.673 288.006 300.703 300.848C309.253 314.519 319.06 327.399 327.891 340.726C333.157 348.672 339.171 356.126 344.566 363.997C349.671 371.447 354.703 378.896 359.904 386.279C362.646 378.572 367.993 371.953 375.382 368.054C365.32 353.766 355.692 339.286 346.834 324.204C339.204 311.21 332.474 298.175 325.388 285.023C318.407 272.066 311.519 259.097 304.465 246.15C300.941 239.684 297.974 232.89 294.951 226.135C291.735 218.947 290.383 210.942 286.901 203.89C285.274 200.592 283.069 196.786 283.285 192.966C283.49 189.364 285.991 185.687 287.915 182.783C289.057 181.06 291.246 176.27 293.596 176.247C297.838 176.205 292.812 184.871 292.148 186.577C289.091 194.433 293.347 201.225 296.547 208.263C299.671 215.135 302.156 222.346 305.481 229.138C306.876 231.989 308.294 234.772 309.564 237.664C310.003 238.663 311.208 241.944 312.324 242.269C312.963 242.455 316.129 240.405 316.617 240.093C319.095 238.512 322.472 235.764 323.959 233.203C325.43 230.669 324.834 226.344 324.158 223.633C322.199 215.761 318.072 208.273 314.828 200.888C311.424 193.136 307.851 185.285 304.916 177.341C303.33 173.049 301.903 168.718 300.169 164.479C299.184 162.069 298.153 159.679 297.057 157.317C295.666 154.316 295.56 153.21 292.245 153.458ZM178.467 247.15C175.376 248.645 174.557 249.436 173.926 252.791C173.271 256.278 173.561 259.719 173.202 263.224L173.199 263.248L173.154 263.864C173.169 263.66 173.184 263.457 173.199 263.254L173.202 263.224C172.641 268.672 171.95 274.118 171.617 279.503C171.181 286.542 173.759 293.113 176.816 299.254C178.161 301.958 179.533 304.585 181.573 306.849C182.827 308.239 184.279 309.419 185.718 310.606C187.539 312.106 187.816 313.033 189.004 310.999C190.464 308.499 189.3 304.441 188.886 301.744C188.233 297.492 187.895 293.434 187.948 289.114C188.112 287.166 188.228 285.215 188.338 283.263C188.336 283.105 188.335 282.948 188.334 282.79L188.338 283.259C188.606 278.492 188.834 273.722 189.617 268.991C189.899 267.291 190.24 265.597 190.662 263.926C191.046 262.4 192.61 259.633 192.485 258.136C192.358 256.627 190.01 253.81 189.567 251.301C189.313 249.862 189.31 248.337 189.23 246.883C189.113 244.776 189.617 244.266 187.795 243.68C185.617 242.979 180.336 246.246 178.467 247.15ZM146.547 230.654C145.72 233.169 142.353 235.672 140.614 237.546C135.864 242.664 132.186 247.865 128.459 253.723C122.477 263.121 117.026 274.072 114.529 285.071C108.161 286.832 110.377 273.722 111.252 271.185C113.397 264.959 115.899 258.839 119.155 253.114C122.141 247.862 126.219 242.173 130.389 237.797C132.113 235.988 134.144 233.782 136.024 232.099C137.68 230.615 141.401 227.003 143.476 226.661C145.899 226.262 147.388 228.099 146.547 230.654ZM374.041 192.24C377.757 199.136 379.569 207.654 380.907 215.325C382.12 222.275 383.081 229.866 382.898 236.923C383.079 238.134 383.152 239.351 383.168 240.572L383.141 241.678C383.162 240.779 383.184 239.88 383.205 238.982C383.571 239.874 383.616 240.756 383.169 241.625C383.15 243.403 383.042 245.186 383.004 246.966C382.949 249.538 383.495 254.794 381.741 257.007C379.067 260.382 378.268 254.331 378.102 252.677C377.687 248.537 377.627 244.348 377.3 240.199C376.152 225.658 374.274 209.588 368.685 196.043C368.154 194.757 367.32 192.004 366.301 191.093C365.579 190.449 365.024 191.156 364.193 190.029C363.326 188.855 362.098 182.019 363.594 180.694C366.729 177.916 372.754 189.852 374.041 192.24ZM119.548 226.116C123.996 229.219 107.669 236.789 105.48 238.179C101.567 240.665 97.6665 243.076 93.8418 245.704C89.8242 248.464 86.0221 251.77 81.8916 254.288C76.7148 248.19 91.2914 239.31 95.5207 237.035C99.8169 234.724 103.906 232.093 108.37 230.134C110.504 229.197 117.292 224.542 119.548 226.116ZM246.144 228.359C245.268 228.495 243.575 229.554 242.727 229.853C234.381 232.792 224.752 234.184 217.06 238.354C211.867 238.405 206.388 241.509 201.408 242.941C199.43 243.51 195.469 244.074 193.807 245.206C191.944 246.474 192.833 251.713 192.833 254.027C196.073 250.988 199.874 251.611 204.162 251.428C210.193 251.171 216.184 250.576 222.183 250.23C228.544 249.864 234.761 248.876 241.153 248.901C247.448 248.926 253.608 247.611 259.806 248.824C258.725 244.576 254.836 240.028 252.472 236.394C251.016 234.157 249.946 231.308 248.291 229.234C247.034 227.658 247.919 228.081 246.144 228.359ZM203.805 251.42L201.66 251.455C202.366 250.882 203.083 251.016 203.805 251.42ZM393.774 199.889C396.838 208.63 399.668 217.159 399.857 226.529C399.921 229.776 400.012 234.897 398.638 237.888C396.351 242.865 394.293 238.461 394.385 235.045C393.633 226.456 392.609 217.811 390.755 209.379C389.893 205.457 387.99 200.502 388.677 196.437C389.689 190.46 393.093 197.945 393.774 199.889ZM394.385 235.045C394.362 235.885 394.339 236.725 394.316 237.562C394.338 236.72 394.361 235.883 394.385 235.045ZM413.537 216.285C414.533 218.902 416.24 225.137 414.594 227.71C412.396 231.144 410.752 227.296 410.109 224.83C409.098 220.947 409.171 216.913 407.708 213.156C409.94 208.399 412.276 212.972 413.537 216.285ZM100.438 212.632C100.438 215.378 96.2512 216.22 93.9885 217.356C92.3221 218.193 90.3686 220.637 89.303 218.688C87.5129 215.412 98.2365 212.632 100.438 212.632ZM187.798 45.6613C189.709 51.3423 191.101 57.859 190.295 63.8858C189.88 66.9833 188.732 70.0142 187.695 72.9493C187.055 74.7614 184.358 79.0965 185.08 81.0636C188.058 80.4448 192.952 81.4774 195.363 79.8186C198.104 77.9326 197.855 73.9933 202.176 73.7299C208.807 73.3257 214.149 79.2162 214.612 85.8147C214.851 89.23 212.338 92.8407 209.785 94.8577C208.408 95.9455 207.102 96.2901 205.589 96.9719C204.585 97.4245 204.29 97.4047 204.223 97.3815L204.221 97.3799L204.225 97.3847C204.267 97.4424 204.341 97.7085 203.902 98.713C203.356 99.9614 203.512 101.94 203.351 103.274C203.115 105.23 202.331 107.672 202.589 109.599C202.866 111.674 202.775 111.895 205.023 111.155C207.606 110.305 210.918 106.731 212.858 104.806C214.761 102.919 216.645 98.8709 219.378 102.11C221.475 104.594 221.47 110.83 221.15 113.91C220.406 121.068 212.257 126.903 206.555 130.303C202.535 132.699 203.112 134.27 203.365 138.794C203.57 142.464 204.146 146.163 204.634 149.804C205.223 154.203 206.635 154.271 208.792 151.008C210.444 148.511 213.147 144.42 216.694 145.853C220.216 147.274 219.913 151.845 220.701 154.833C221.805 159.016 221.45 162.163 217.895 165.22C216.281 166.608 211.078 168.866 210.636 171.117C210.421 172.211 212.944 175.634 213.546 176.803C214.803 179.246 216.121 181.657 217.757 183.873C218.31 180.151 221.565 176.997 223.601 174.029C226.059 170.446 229.065 167.924 232.591 165.325C233.883 164.374 237.141 163.096 235.615 161.445C234.291 160.01 232.912 161.07 231.6 158.77C229.4 154.917 229.085 148.71 228.912 144.368C228.759 140.49 228.617 135.05 230.92 131.687C233.724 127.592 236.532 127.436 240.734 129.181C244.013 130.543 245.733 135.838 247.487 138.999C250.453 144.342 250.512 148.881 250.512 154.792C253.687 152.998 257.17 152.308 260.593 151.245C262.957 150.511 267.125 150.036 268.931 148.267C266.992 147.198 265.957 144.875 266.36 142.682C267.021 139.089 268.864 140.652 271.598 140.177C272.824 139.964 273.711 139.038 274.944 138.861C276.206 138.681 277.563 139.184 278.818 139.378C281.911 139.857 284.923 140.586 287.995 141.098C286.284 138.815 284.558 135.708 281.806 134.847C278.489 133.809 274.499 133.642 271.034 132.776C266.566 131.659 258.863 124.568 265.406 120.188C267.879 118.533 271.129 120.632 273.471 118.413C275.69 116.309 275.035 111.936 275.63 109.102C277.003 102.572 280.901 96.6716 287.244 94.1521C289.419 96.4751 283.226 102.206 282.386 104.57C281.886 105.978 281.503 105.822 282.019 106.991C282.377 107.804 284.133 108.723 284.893 109.345L285.529 109.865C287.227 111.249 288.956 112.597 290.952 113.537C290.721 110.62 290.833 106.906 294.086 105.628C296.881 104.529 300.463 107.415 301.39 109.991C302.337 108.62 304.104 105.972 304.105 104.229C305.001 102.933 304.629 102.269 302.987 102.237C302.293 101.948 301.586 101.699 300.866 101.487C297.811 100.286 295.489 98.9424 294.504 95.5623C293.769 93.0377 293.606 90.3887 292.742 87.8942C293.191 86.5976 292.731 85.7858 291.364 85.4587C290.937 85.1516 290.511 84.8451 290.084 84.5379C288.672 83.499 287.217 82.4079 285.903 81.2464C284.869 80.3312 283.904 78.4339 282.861 77.7305C282.628 77.2417 282.31 76.812 281.909 76.4424C280.985 77.0112 280.058 77.5744 279.127 78.1325C275.903 80.1036 272.828 81.8538 268.919 81.5467C265.866 81.3065 261.343 80.2614 258.496 79.1248C255.387 77.8833 253.249 74.351 251.33 71.7758C246.089 75.6879 241.738 73.5902 239.799 67.5203C238.934 64.8123 238.448 61.942 238.203 59.1142C238.002 56.8031 238.691 54.7565 236.921 53.4973C234.712 51.9248 229.86 51.8351 227.252 51.4161C224.391 50.9563 221.017 50.1348 218.106 50.5714C219.383 55.3719 221.285 60.9031 217.671 64.7857C214.101 68.6222 212.305 70.582 207.65 66.4241C204.091 63.2432 201.157 58.8985 198.556 54.9104C197.193 52.8189 196.586 50.0922 195.208 48.1104C193.621 45.8293 190.467 46.0706 187.798 45.6613ZM183.299 46.6347C182.118 46.6116 179.319 47.1373 178.148 47.3712C174.965 48.0082 171.802 48.5259 168.467 49.0584C160.992 50.2512 153.553 51.7965 146.111 53.1323C139.284 54.358 131.709 56.0316 125.219 58.6317C118.125 61.4731 111.24 64.2361 104.485 67.8399C97.7125 71.4534 91.8969 76.1625 85.4225 80.1496C73.2856 87.6229 61.0023 95.3085 49.0986 103.244C41.528 108.29 33.4508 112.659 26.1088 117.99C22.3261 120.736 18.6438 123.605 15.0403 126.582C12.3884 128.771 7.57527 131.789 6.87001 135.447C10.4241 135.447 15.2327 129.232 18.1303 127.288C20.2404 125.871 22.6024 124.727 24.7953 123.437C26.0538 122.696 30.0754 118.841 31.4439 118.821C33.4179 118.792 33.7067 121.614 33.2147 122.89C32.577 124.543 30.6973 125.901 29.4484 127.085C25.3775 130.946 22.001 136.027 19.294 140.935C24.2733 139.103 28.4028 133.088 31.9432 129.235C33.8145 127.198 43.376 118.414 42.6963 126.735C42.4449 129.814 40.2247 132.167 38.6769 134.713C37.0031 137.467 35.2794 140.261 33.8071 143.125C30.8164 148.942 28.5565 154.926 26.771 161.231C29.8677 160.01 30.6774 156.597 32.1225 153.925C33.5937 151.205 35.3146 148.577 36.9668 145.965C40.4727 140.423 43.5184 134.594 47.241 129.186C48.7111 127.048 55.2797 115.756 57.9191 117.348C59.6968 118.42 60.2227 123.464 60.7561 125.235C61.6003 128.036 62.9008 130.971 65.7133 132.24C65.8421 126.518 65.6458 120.804 65.7371 115.098C65.8097 110.607 68.2381 109.325 71.302 106.19C78.4062 98.9202 87.49 94.231 95.9219 88.7481C99.6746 86.308 103.149 83.1329 107.293 81.101C111.954 78.8166 116.483 76.1807 121.034 73.6215C130.731 68.1699 141.629 66.1555 152.664 67.2449L152.682 67.247C151.806 67.1602 150.929 67.0733 150.053 66.9864C150.924 67.0727 151.794 67.159 152.665 67.2453C152.67 67.2455 152.676 67.2461 152.682 67.2467C163.147 65.7791 174.881 67.8081 184.514 71.8763C186.624 64.5977 187.411 56.9377 185.744 49.4672C185.256 47.2758 185.339 46.6769 183.299 46.6347ZM278.16 155.677C277.715 155.701 277.272 155.724 276.822 155.748C277.264 155.724 277.711 155.701 278.16 155.677ZM487.886 34.8192C484.843 37.576 480.861 39.8627 477.5 42.1608C474.414 44.2709 471.543 46.6724 468.495 48.7814C460.577 54.2609 453.342 60.7407 445.669 66.6222C431.259 77.6687 416.241 87.637 399.753 95.3386C391.978 98.9696 383.979 102.131 375.992 105.241C368.208 108.272 360.871 112.42 352.269 112.451C347.859 112.466 343.203 112.586 338.821 111.92C334.097 111.202 329.169 108.371 324.863 106.381C322.838 105.444 320.772 104.552 318.824 103.463C317.034 102.462 314.62 99.9013 312.727 99.5703C308.453 98.8226 308.015 107.606 306.91 110.674C306.534 111.716 305.262 113.534 305.248 114.558C305.22 116.482 304.926 115.5 306.643 116.744C308.507 118.095 311.086 119.193 313.156 120.256C317.07 122.267 321.247 124.061 325.28 125.732C329.6 127.523 333.775 128.704 338.451 129.211C340.469 129.43 342.374 129.488 344.284 129.503L344.198 129.54C345.049 129.167 345.9 128.89 346.767 129.496L346.125 129.507C347.523 129.505 348.943 129.5 350.431 129.536C349.688 129.518 348.946 129.5 348.203 129.482C348.955 129.125 349.7 129.05 350.432 129.536C361.359 128.332 370.953 122.046 381.216 118.695C391.675 115.28 402.534 110.371 412.469 105.222C421.9 100.334 431.352 95.3488 441.043 90.8684C446.602 88.2979 452.512 82.9739 458.871 84.9859C461.803 85.9135 464.422 87.7245 467.462 88.3535C470.959 89.0768 474.351 89.2005 477.812 90.2394C477.595 88.63 473.034 86.2138 471.978 84.5436C471.274 83.4292 471.174 82.1632 470.589 81.0636C470.055 80.0581 469.228 79.973 469.02 78.7876C468.217 74.2227 475.723 69.4386 478.562 66.893C487.614 58.7736 498.254 52.2904 507.273 43.9474C501.839 43.9474 495.278 50.8938 491.211 54.0656C488.476 56.1991 485.767 58.3359 482.884 60.2673C482.095 60.7964 478.431 63.6037 477.425 63.2892C474.603 62.4081 477.291 57.4821 478.313 56.3796C480.312 54.2206 483.007 52.4851 485.304 50.6611C490.138 46.8211 494.554 42.7262 498.653 38.0131C494.609 38.2555 489.035 44.9454 486.175 47.6011C483.049 50.5032 478.913 54.4403 474.85 55.9629C472.751 56.7492 471.71 56.534 471.553 53.9873C471.374 51.0834 473.634 49.554 475.587 47.8339C479.48 44.4038 485.722 39.6089 487.886 34.8192ZM257.107 109.555C257.648 114.339 254.121 120.259 248.833 120.457C243.168 120.667 242.839 114.016 243.042 109.977C243.15 107.808 242.885 106.53 244.38 105.031C245 104.41 246.504 104.144 247.241 103.545C248.189 102.773 248.827 101.65 249.759 100.846C254.559 96.7062 257.679 105.718 257.107 109.555ZM235.754 76.5079C237.583 77.6461 239.579 80.5658 240.454 82.4501C242.009 85.7933 243.231 88.9912 244.006 92.5859C243.153 96.4498 239.426 106.588 233.488 104.185C227.324 101.691 227.168 93.8599 227.141 88.5666C227.122 84.7118 229.246 72.4584 235.754 76.5079ZM276.149 94.298C276.24 97.8138 271.701 101.648 268.915 103.134C264.38 105.555 263.464 99.488 263.766 96.206C264.104 92.5381 265.577 90.5079 268.952 88.9479C273.964 86.6311 275.103 90.0436 276.149 94.298ZM204.215 97.3746C204.206 97.3668 204.202 97.372 204.216 97.3786L204.221 97.3799L204.215 97.3746ZM266.147 38.1965C264.465 38.7301 261.931 41.9632 260.645 43.2553C259.85 44.0541 258.486 46.5043 257.351 46.6457C255.665 46.8563 255.819 46.0592 254.672 44.6854C250.353 39.5073 245.784 39.526 243.304 45.81C244.749 46.527 246.279 46.6582 247.861 46.6031C248.398 46.5849 250.462 45.9678 250.859 46.2307C253.105 47.7198 249.815 49.0068 249.363 49.7698C249.02 50.3487 248.853 50.8637 248.719 51.3251C248.739 51.7379 248.759 52.1516 248.777 52.5672C248.749 51.9825 248.722 51.3938 248.694 50.8056L248.718 51.3285C248.392 52.4515 248.261 53.2569 246.266 53.8947C244.311 54.5198 242.669 53.9731 240.725 53.3611C240.972 57.1916 240.961 64.0176 243.642 67.1628L243.791 67.3304C244.547 67.6767 245.303 68.0224 246.06 68.3687C245.956 68.3769 245.854 68.3821 245.754 68.3837C247.054 68.4086 248.602 67.827 249.525 67.6304C249.125 65.7281 246.952 59.2749 247.935 57.8959C249.793 55.2885 250.607 59.1744 251.07 60.932C252.16 65.0695 254.534 70.5045 258.27 73.1042C258.232 73.0461 258.198 72.9828 258.166 72.9141C259.057 73.0719 260.01 73.1111 260.454 74.1205C260.187 74.0095 259.895 73.9483 259.606 73.8792L259.607 73.8798C263.156 75.5409 269.8 78.3028 273.353 76.4464C278.269 73.8781 282.234 69.6242 286.383 66.059C283.524 64.6454 283.133 62.4529 285.355 60.156C290.068 65.2103 292.951 54.3654 294.466 51.0568C291.566 50.8007 288.965 52.5464 285.999 51.952C283.583 51.4678 280.669 50.6168 278.598 49.2571C275.832 47.4399 273.407 44.8165 271.03 42.5445C269.607 41.1843 267.675 37.7111 266.147 38.1965ZM179.106 74.393C179.241 74.9454 179.373 75.4847 179.503 76.0251C180.295 74.5287 180.295 74.5287 179.106 74.393ZM270.332 73.489C269.157 73.3596 264.498 72.5262 267.497 71.1824C269.028 70.4961 270.477 72.0817 270.332 73.489ZM284.338 56.69C284.99 58.2245 282.391 60.9739 281.661 62.2927C280.518 64.3597 278.525 73.0025 275.299 72.1271C271.753 72.118 272.34 68.7379 274.289 67.0921C274.969 66.5181 275.714 66.4909 276.388 65.7591C276.973 65.1233 277.336 63.8488 277.726 63.0704C278.682 61.1646 279.544 58.9557 281.057 57.4195C282.272 56.1853 283.553 54.8438 284.338 56.69ZM267.194 54.6285C268.916 54.8295 267.793 55.6521 268.676 56.385C269.267 56.8752 269.359 57.1174 269.309 57.2286L269.302 57.2412L269.346 57.2386C269.58 57.2252 270.009 57.2335 270.756 57.3035C272.394 57.4568 277.433 55.987 274.231 59.2286C273.534 59.9343 269.342 61.906 268.409 61.4558C266.327 60.4526 267.211 56.368 267.194 54.6285ZM269.302 57.2412C268.884 57.2743 269.213 57.382 269.301 57.2443L269.302 57.2412ZM131.864 56.7796C131.417 56.7921 130.969 56.8046 130.516 56.8165C130.962 56.8035 131.413 56.7915 131.864 56.7796ZM201.272 41.4166C201.983 41.5103 202.693 41.6034 203.403 41.6971C202.692 41.6034 201.982 41.5103 201.272 41.4166Z" fill="black"/>
</g>
<defs>
<clipPath id="clip0">
<rect width="581" height="436" fill="white"/>
</clipPath>
</defs>
</svg>
