<svg width="212" height="159" viewBox="0 0 212 159" fill="none" xmlns="http://www.w3.org/2000/svg">
<path fill-rule="evenodd" clip-rule="evenodd" d="M92.956 69.4534C91.0719 70.8192 91.3719 73.5066 91.939 75.4591C92.7742 78.3341 94.4377 80.9956 96.3353 83.2897C99.7019 87.3594 105.417 91.9292 110.685 88.3563C115.377 85.1743 118.336 78.7535 119.357 73.3453C119.673 71.674 120.093 69.1837 118.61 67.9271C116.417 66.0698 112.549 66.4077 109.902 66.6468C108.158 66.8042 106.476 67.3387 104.753 67.0878C100.75 66.5044 96.2949 67.0328 92.956 69.4534Z" fill="#0779E4"/>
<path fill-rule="evenodd" clip-rule="evenodd" d="M174.118 90.7507C170.302 95.5922 163.813 96.3571 158.05 96.3096C154.589 96.281 151.122 96.0205 147.729 95.3152C145.9 94.935 144.083 94.4313 142.316 93.8262C141.149 93.4264 139.411 93.2265 138.914 91.9758C137.604 88.6755 138.568 84.5368 139.107 81.1871C139.382 79.4833 139.588 77.7692 139.855 76.064C140.026 74.9731 140.107 73.7659 140.565 72.7454C141.1 71.5497 141.776 71.7884 142.909 72.1187C144.469 72.5742 146.07 72.7635 147.674 73.0083C151.588 73.6061 155.003 74.8113 158.561 76.5197C162.078 78.2088 165.49 79.8761 168.628 82.2248C170.217 83.4151 171.587 84.707 172.863 86.2239C173.849 87.3958 175.32 89.2255 174.118 90.7507ZM157.435 112.255C157.404 112.776 151.422 111.202 150.635 111.026C145.471 109.867 140.203 108.548 135.328 106.455C130.776 104.501 126.766 102.266 123.185 98.7952C121.516 97.1774 120.014 95.4737 118.577 93.6592C117.857 92.7498 116.873 92.8553 116.07 92.086C115.348 91.3935 114.794 90.8528 115.02 89.8175C116.825 90.2931 120.158 93.2826 122.029 91.773C123.095 90.9126 121.616 90.0137 120.933 89.5151C119.65 88.5775 118.552 87.4208 117.532 86.2068C119.284 86.5464 120.914 87.2026 122.439 88.116C123.117 88.5217 125.439 89.9931 125.979 88.5905C126.312 87.7269 124.737 86.6419 124.246 86.1642C123.041 84.9913 121.74 83.622 121.1 82.0451C122.682 81.678 124.174 82.9009 125.251 83.897C126.447 85.0028 127.913 86.1634 128.916 87.4377C129.434 88.0949 129.546 88.8711 129.951 89.58C130.405 90.3775 131.133 91.0612 131.828 91.6513C133.168 92.7885 134.735 93.6257 136.343 94.3181C140.018 95.9005 143.957 97.0202 147.874 97.8058C149.796 98.1912 151.671 98.3687 153.621 98.4341C155.137 98.485 155.808 98.9382 156.387 100.335C157.953 104.114 157.669 108.272 157.435 112.255ZM112.451 83.4567C111.574 84.2768 110.435 84.7912 109.519 85.5797C108.713 86.2734 107.783 87.0136 106.883 87.5746C105.923 88.1733 105.205 87.7536 104.34 87.2117C103.325 86.576 102.158 86.3184 101.112 85.7496C97.4968 83.7819 93.0737 78.9603 93.7487 74.5331C94.0347 72.6567 95.0048 70.8104 96.7664 69.959C98.3664 69.186 100.692 68.757 102.404 69.4032C103.369 69.7678 104.06 70.5727 104.678 71.3638C105.4 72.2862 105.676 72.1408 106.411 71.2512C107.725 69.6598 109.893 68.2636 112.036 68.2971C113.101 68.314 114.159 68.5386 115.118 68.9806C115.248 69.0406 115.32 69.222 115.451 69.2835C115.611 69.3589 115.874 69.2019 115.986 69.2724C116.267 69.4502 116.547 70.0058 116.709 70.2877C117.359 71.4187 118.53 73.6369 117.35 74.5892C117.349 74.5897 117.403 75.8777 117.387 76.0246C117.303 76.793 117.038 77.4274 116.695 78.1302C115.668 80.2414 114.15 81.8668 112.451 83.4567ZM114.198 101.319C113.368 101.577 112.474 98.9755 113.27 98.5602C114.029 98.164 114.95 101.086 114.198 101.319ZM101.158 98.2083C100.87 99.1912 100.749 100.307 100.046 101.107C99.4017 100.343 99.3382 98.9329 99.9626 98.1476C100.319 97.6995 101.472 97.1343 101.158 98.2083ZM127.727 80.9872C127.723 81.0122 128.726 81.4922 128.237 82.0171C127.567 82.7341 127.659 81.3386 127.727 80.9872ZM131.875 72.9768C131.864 73.9707 129.76 73.7307 129.775 72.7312C129.793 71.501 131.887 71.9233 131.875 72.9768ZM129.364 64.671C129.572 63.761 133.231 62.4953 133.132 64.0811C133.082 64.8761 128.922 66.6054 129.364 64.671ZM91.8487 95.5278C91.4385 96.0209 90.8558 96.2154 90.3641 96.5939C89.8484 96.9906 89.4798 97.5053 89.0296 97.971C87.7928 99.2497 86.3041 100.3 84.9699 101.475C82.5169 103.634 80.1672 105.956 77.4475 107.787C72.5874 111.059 66.9515 112.849 61.3565 114.416C60.8931 114.546 59.5579 115.07 59.0993 114.679C58.6047 114.258 58.8562 112.777 58.879 112.217C58.9718 109.921 59.2394 107.598 59.2105 105.305C59.1985 104.363 58.9227 103.025 59.4141 102.163C59.9627 101.201 61.4944 100.919 62.442 100.557C65.3219 99.4564 68.096 97.5996 70.64 95.8799C73.7672 93.7657 76.9256 91.6166 80.1438 89.643C83.2968 87.7095 86.7746 86.4149 90.2917 85.3106C90.4546 85.6529 88.7764 86.7548 88.5846 86.9093C87.6645 87.65 86.6635 88.4179 85.9804 89.3956C85.4969 90.0879 85.001 91.6543 86.3362 91.6944C86.9834 91.714 87.9403 91.0879 88.5272 90.8854C89.4965 90.5509 90.4953 90.3161 91.5094 90.1633C90.6376 91.1232 87.6829 92.8472 88.2205 94.4435C88.7421 95.9925 91.7591 94.1849 92.7977 94.1849C92.6274 94.7251 92.1995 95.1061 91.8487 95.5278ZM56.2052 99.8511C54.2731 100.531 52.2926 100.917 50.2984 101.356C48.3977 101.774 46.6408 102.089 44.694 101.844C42.0059 101.506 39.0313 100.393 38.6905 97.3383C38.2864 93.7195 40.8422 90.394 43.0369 87.7977C45.7077 84.6387 48.7069 81.8146 51.9573 79.2575C55.2039 76.7029 58.7083 74.4506 62.3796 72.5492C65.1727 71.1028 68.3271 70.2245 71.2804 69.139C71.8422 68.9326 73.3963 68.2068 73.9218 68.8082C74.3465 69.2945 73.7685 70.1047 73.5749 70.5563C73.1973 71.4366 73.1453 72.3227 73.0479 73.2679C72.6124 77.4889 72.0883 81.7086 71.8472 85.9477C71.7799 87.1292 71.6617 88.365 71.7306 89.5472C71.7686 90.202 72.1094 91.036 71.8825 91.6753C71.4463 92.9043 69.4486 93.7177 68.3899 94.2667C66.4946 95.2494 64.4877 95.9827 62.573 96.9228C60.4701 97.9551 58.4227 99.071 56.2052 99.8511ZM83.0017 72.4246C83.5321 72.3519 84.3265 72.2074 84.7993 72.5509C85.4159 72.999 85.2542 73.6225 84.6848 73.9474C84.235 74.2043 83.1825 74.2745 82.7382 74.0414C81.9813 73.6445 82.1093 72.5475 83.0017 72.4246ZM85.939 82.1986C85.5104 82.9124 83.944 83.3805 84.0805 82.0485C84.1975 80.9079 86.7283 80.8842 85.939 82.1986ZM85.3575 62.0898C86.0464 62.3567 87.2967 62.5852 87.5011 63.4714C87.6913 64.2963 86.9096 64.2417 86.3455 64.0147C85.8816 63.8284 83.8148 62.0756 85.3575 62.0898ZM193.302 93.5564C192.9 91.9905 193.207 90.2568 192.984 88.653C192.769 87.0983 192.381 85.6695 191.825 84.2043C190.594 80.9606 189.183 78.0405 187.186 75.1938C183.426 69.8327 179.064 65.1105 173.796 61.1946C168.596 57.3289 162.837 54.1873 156.737 51.9855C150.269 49.6505 143.757 48.8378 136.936 48.3902C134.899 48.2567 132.864 48.0983 130.838 47.8409C129.358 47.6529 127.502 47.4212 126.038 47.8747C125.118 48.1597 124.605 48.9617 125.606 49.4879C126.317 49.8611 127.247 49.9056 128.031 50.0048C127.083 53.0152 125.542 56.0358 123.098 58.1086C120.713 60.1324 117.521 60.8261 114.511 61.3393C112.878 61.6175 111.05 61.8327 109.392 61.7127C108.344 61.6371 107.526 61.1518 107.103 62.2314C106.81 62.9814 106.671 63.8044 106.284 62.6719C105.827 61.333 105.602 61.3415 104.179 60.9613C101.268 60.1836 97.9304 59.474 95.3908 57.7922C92.756 56.0473 91.8396 53.2245 90.3687 50.5961C90.0049 49.9465 88.9077 48.6316 89.4683 47.8872C89.9811 47.2065 91.6485 47.2743 92.412 47.2033C93.2177 47.1284 94.0284 47.1252 94.8368 47.0939C95.3051 47.0757 96.2473 47.2677 96.0589 46.5681C95.7745 45.5137 92.7287 45.6489 91.9723 45.6318C90.5658 45.6002 89.1398 45.6327 87.7403 45.7875C80.8011 46.5549 73.7996 47.9739 67.0847 49.8662C54.0567 53.5372 41.4389 60.3018 31.9312 70.0472C22.8047 79.4017 19.9133 94.9688 25.5239 106.913C28.4396 113.121 34.7674 115.671 40.9014 117.73C44.1368 118.816 47.5628 119.666 51.0021 119.461C52.6526 119.363 54.2186 118.918 55.8284 118.583C56.5303 118.437 57.3292 118.204 58.0502 118.263C58.5961 118.308 59.1204 118.809 59.6325 118.543C59.9958 118.354 60.1538 117.811 60.5979 117.58C61.1311 117.303 61.7776 117.203 62.3534 117.063C63.954 116.674 65.5039 116.043 67.0685 115.527C68.6863 114.992 70.2131 114.303 71.7655 113.607C72.5493 113.255 74.3632 111.826 74.874 112.871C75.1069 113.348 75.0077 114.268 75.0644 114.768C75.1638 115.643 75.2806 116.516 75.4081 117.387C75.6893 119.305 76.0259 121.215 76.3709 123.123C76.9936 126.565 77.7959 129.86 79.1374 133.098C80.2086 135.683 81.149 138.614 83.1381 140.67C84.0064 141.568 85.1912 141.972 86.4365 141.69C87.8532 141.369 88.5583 140.082 89.4183 139.042C91.3104 136.752 94.4342 134.998 97.3187 134.366C100.851 133.593 104.292 134.724 107.663 135.686C111.23 136.702 114.86 137.671 118.361 138.894C121.623 140.033 125.145 141.716 128.683 141.569C131.768 141.442 134.649 138.931 136.874 137.017C139.109 135.095 141.903 132.28 145.116 132.507C146.712 132.619 148.165 133.389 149.719 133.702C151.426 134.045 153.241 134.094 154.976 134.222C157.13 134.381 161.948 133.819 162.744 131.229C162.863 130.844 162.863 130.053 162.356 129.899C161.889 129.758 161.65 130.303 161.208 130.278C160.308 130.228 159.605 128.659 159.11 128.051C157.115 125.599 154.378 123.77 152.14 121.554C149.612 119.053 147.453 116.022 145.548 113.033C146.409 112.809 147.339 113.181 148.172 113.358C149.185 113.572 150.172 113.831 151.17 114.106C152.27 114.409 153.385 114.617 154.502 114.848C155.335 115.02 156.44 115.072 157.192 115.49C157.848 115.854 158.214 116.246 159.029 116.352C159.858 116.46 160.708 116.369 161.541 116.363C163.792 116.348 166.039 116.306 168.28 116.068C176.197 115.227 184.59 111.878 189.351 105.232C190.646 103.424 191.689 101.421 192.349 99.296C192.863 97.6368 193.75 95.2986 193.302 93.5564Z" fill="black"/>
<path fill-rule="evenodd" clip-rule="evenodd" d="M119.041 16.9783C121.121 17.0077 123.072 17.6247 125.01 18.3262C126.715 18.9429 128.533 19.5136 129.912 20.7446C132.391 22.9591 133.037 26.6258 133.443 29.7629C133.949 33.6774 132.265 36.9617 130.847 40.5033C129.521 43.8156 127.088 46.4988 124.195 48.5435C122.68 49.6145 121.005 50.261 119.252 50.8279C117.472 51.4037 115.748 52.1748 113.844 52.1719C110.952 52.1677 107.249 50.794 106.017 47.9446C105.456 46.6473 106.002 46.4144 107.125 47.1195C108.753 48.1424 110.323 49.2464 112.225 49.7002C115.916 50.5805 120.335 49.2167 123.571 47.4172C126.805 45.6182 128.977 42.9158 130.428 39.5508C131.892 36.156 132.461 32.8108 131.897 29.151C131.418 26.0495 130.466 23.2166 127.671 21.5329C121.638 17.8989 113.509 18.1917 108.143 22.9144C107.407 23.5619 106.68 24.1919 105.922 24.8101C105.44 25.2031 104.872 25.6745 104.942 26.3541C105.002 26.936 106.243 29.1797 104.749 28.4906C103.538 27.9317 102.879 26.8393 101.412 26.7041C99.8506 26.56 97.9878 27.7597 97.5207 29.2695C97.0751 30.7102 97.8696 32.6812 99.1142 33.5076C99.8849 34.0193 100.733 33.9403 101.608 33.9197C102.042 33.9094 103.252 33.7682 103.539 34.2274C104.048 35.0396 102.253 35.8931 101.674 36.0728C100.265 36.5099 98.5999 35.9955 97.7899 34.7377C96.9665 33.459 96.4029 31.9791 96.2894 30.4557C96.181 28.9961 96.5123 27.5184 97.3733 26.32C98.2892 25.0455 100.156 23.6166 101.83 24.0594C102.556 24.2515 103.14 25.0021 103.853 25.1446C104.303 25.2345 104.113 25.2988 104.486 24.9652C104.723 24.7537 104.946 24.3632 105.165 24.1124C106.421 22.6702 107.663 21.1312 109.2 19.9769C111.957 17.9072 115.621 16.9297 119.041 16.9783ZM111.418 45.5702C111.744 44.8059 112.343 46.1693 112.52 46.3972C112.87 46.8482 113.695 47.199 113.659 47.8642C113.6 48.9623 112.104 48.7586 111.605 48.1858C111.037 47.5336 111.096 46.3249 111.418 45.5702ZM122.051 40.3711C122.859 41.6294 121.875 42.9877 121.236 44.1013C120.626 45.1662 120.059 46.3699 119.348 47.371C118.169 49.0331 115.602 47.2351 115.526 45.5268C115.468 44.2192 116.394 44.7884 116.989 45.2768C117.601 45.7798 117.89 45.9051 118.532 45.3557C119.822 44.2499 120.402 42.401 121.294 41.0011C121.471 40.7236 121.792 40.5566 122.051 40.3711ZM124.353 40.7757C124.561 41.3842 124.124 42.9966 125.339 42.8354C126.01 42.7464 126.153 41.7836 126.505 41.3634C127.692 39.9508 127.328 42.6225 127.018 43.2912C126.335 44.765 124.423 45.7804 123.474 43.9108C123.122 43.2152 123.123 42.3375 123.302 41.5898C123.4 41.1826 123.969 39.652 124.353 40.7757ZM113.525 37.8937C113.417 38.6037 112.75 40.0183 113.565 40.5262C114.282 40.9733 115.53 40.0024 116.083 39.597C116.656 39.1757 117.956 37.9672 118.007 39.4711C118.033 40.2377 117.266 41.1575 116.718 41.5992C115.55 42.541 113.122 43.3858 112.261 41.6131C111.792 40.6473 112.049 39.2725 112.359 38.2994C112.61 37.5106 113.785 36.1788 113.525 37.8937ZM128.848 34.0065C129.323 34.5586 130.45 35.7956 129.838 36.5818C129.121 37.5009 127.957 35.8147 127.498 35.3454C127.085 34.9226 126.215 33.7187 126.586 33.0802C127.2 32.0235 128.43 33.5218 128.848 34.0065ZM121.375 31.6292C122.929 32.6416 120.886 33.3706 120.001 33.4612C118.929 33.5705 117.56 33.643 116.576 33.1173C115.181 32.3722 115.646 31.2466 116.998 30.9771C118.384 30.701 120.169 30.8434 121.375 31.6292ZM101.172 28.4062C102.315 28.6286 103.62 28.918 104.009 30.1639C104.411 31.4516 103.834 31.8789 102.667 31.5891C101.587 31.3208 99.9733 31.0508 99.3627 29.9958C98.6332 28.7354 100.112 28.2003 101.172 28.4062Z" fill="black"/>
<path fill-rule="evenodd" clip-rule="evenodd" d="M38.2897 56.0745C37.9062 57.313 35.9651 58.1345 34.9971 58.8873C31.6112 61.5214 28.3026 64.2639 25.2417 67.2701C23.6529 68.8305 22.4503 70.7178 21.0726 72.4533C20.7364 72.8767 20.1409 73.8254 19.4816 73.7363C18.7582 73.6389 18.612 72.393 18.6351 71.8489C18.7141 69.9936 20.4086 68.2017 21.617 66.9241C22.9764 65.4875 24.4297 64.0876 25.914 62.7795C27.5481 61.3395 29.3214 60.1017 31.1286 58.8897C32.9031 57.6998 34.6045 56.325 36.4499 55.2471C37.3193 54.7395 38.7628 54.5463 38.2897 56.0745ZM156.645 44.3122C158.058 44.3567 159.437 44.8203 160.77 45.2506C163.702 46.1974 166.494 47.5108 169.248 48.8835C174.075 51.2897 178.721 54.201 182.979 57.5112C183.869 58.2029 184.782 58.7635 185.75 59.3292C186.369 59.6916 187.253 60.1337 187.491 60.8723C188.097 62.7497 185.037 60.8654 184.603 60.5958L183.992 60.217C174.932 54.6016 165.882 49.1457 155.633 45.9254C155.087 45.7538 154.917 45.2669 155.204 44.7841C155.514 44.261 156.119 44.2957 156.645 44.3122ZM37.8774 48.2413C37.8119 48.8129 37.1644 48.943 36.7277 49.1264C35.0984 49.8109 33.4284 50.3945 31.8034 51.0903C28.7875 52.3815 26.0178 54.2555 22.8699 55.2354C22.1505 55.4598 22.0444 54.7337 22.237 54.2397C22.4515 53.6883 23.0958 53.3011 23.5617 52.9822C24.9059 52.0614 26.4304 51.3994 27.9231 50.7598C29.4029 50.1251 30.9267 49.6451 32.444 49.1131C33.8542 48.6186 35.4909 47.6983 37.0053 47.6303L37.0715 47.6271C37.5535 47.6027 37.9537 47.5702 37.8774 48.2413ZM159.217 39.5574C157.776 39.1521 159.137 38.2399 159.994 38.304C160.949 38.3756 161.872 38.8266 162.778 39.0986C165.548 39.9303 168.115 40.8398 170.703 42.1306C171.089 42.3234 172.789 43.237 171.664 43.6416C170.885 43.9218 169.065 42.7192 168.396 42.4307C165.455 41.1629 162.295 40.4231 159.217 39.5574Z" fill="black"/>
<path fill-rule="evenodd" clip-rule="evenodd" d="M101.778 42.51C101.958 41.9815 104.186 36.205 103.314 36.0308C102.39 35.8461 101.156 39.1976 100.888 39.8031C99.8986 42.0395 99.3127 44.4391 98.8536 46.8379C98.5339 48.5082 98.2529 50.2193 98.3649 51.927C98.451 53.2393 98.993 53.438 99.8862 54.2422C99.8862 50.256 100.492 46.2828 101.778 42.51Z" fill="black"/>
</svg>
